<?xml version="1.0" encoding="UTF-8"?>
<svg id="Capa_1" data-name="Capa 1" xmlns="http://www.w3.org/2000/svg" viewBox="0 0 48 48">
  <defs>
    <style>
      .cls-1 {
        fill: #4285f4;
      }

      .cls-2 {
        fill: #fbbc05;
      }

      .cls-3 {
        fill: none;
      }

      .cls-4 {
        fill: #34a853;
      }

      .cls-5 {
        fill: #ea4335;
      }
    </style>
  </defs>
  <path class="cls-5" d="M24,9.5c3.54,0,6.71,1.22,9.21,3.6l6.85-6.85C35.9,2.38,30.47,0,24,0,14.62,0,6.51,5.38,2.56,13.22l7.98,6.19c1.89-5.69,7.2-9.91,13.46-9.91Z"/>
  <path class="cls-1" d="M46.98,24.55c0-1.57-.15-3.09-.38-4.55H24v9.02h12.94c-.58,2.96-2.26,5.48-4.78,7.18l7.73,6c4.51-4.18,7.09-10.36,7.09-17.65Z"/>
  <path class="cls-2" d="M10.53,28.59c-.48-1.45-.76-2.99-.76-4.59s.27-3.14,.76-4.59L2.55,13.22c-1.63,3.24-2.55,6.9-2.55,10.78s.92,7.54,2.56,10.78c0,0,7.97-6.19,7.97-6.19Z"/>
  <path class="cls-4" d="M24,48c6.48,0,11.93-2.13,15.89-5.81l-7.73-6c-2.15,1.45-4.92,2.3-8.16,2.3-6.26,0-11.57-4.22-13.47-9.91l-7.98,6.19c3.96,7.85,12.07,13.23,21.45,13.23Z"/>
  <path class="cls-3" d="M0,0H48V48H0V0Z"/>
</svg>